<?xml version="1.0" encoding="iso-8859-1"?>
<!-- Uploaded to: SVG Repo, www.svgrepo.com, Generator: SVG Repo Mixer Tools -->
<svg height="800px" width="800px" version="1.1" id="Layer_1" xmlns="http://www.w3.org/2000/svg" xmlns:xlink="http://www.w3.org/1999/xlink" 
	 viewBox="0 0 512.002 512.002" xml:space="preserve">
<path style="fill:#FFDEB7;" d="M328.995,158.375c6,16,96.729,307.945,64,336c-18.667,16-29,2-32-8s-56-328-56-328
	S322.995,142.375,328.995,158.375z"/>
<g>
	<path style="fill:#585661;" d="M286.996,93.637h-56c-11.045,0-20-8.955-20-20l0,0c0-11.046,8.955-20,20-20h56
		c11.046,0,20,8.954,20,20l0,0C306.996,84.682,298.042,93.637,286.996,93.637z"/>
	<path style="fill:#585661;" d="M255.995,88.699c-30.928,0-56,32.235-56,72c0,34.463,18.845,63.232,44,70.301h24
		c25.155-7.068,44-35.838,44-70.301C311.995,120.935,286.923,88.699,255.995,88.699z"/>
</g>
<g>
	<path style="fill:#FFD750;" d="M218.811,84.53c3.567-8.896,8.372-16.531,14.062-22.374c4.937-5.07,0.6-13.726-6.241-11.91
		c-0.258,0.068-0.517,0.143-0.776,0.221c-6.193,1.886-11.247,6.926-13.061,13.141C210.354,71.97,213.286,79.691,218.811,84.53z"/>
	<path style="fill:#FFD750;" d="M318.995,309.637c0,87.999-28.654,159.999-64,159.999s-64-71-64-159.999c0-44.184,28.654-56,64-56
		S318.995,265.453,318.995,309.637z"/>
</g>
<path style="fill:#FFDEB7;" d="M183.995,159.739c-6,16-96.729,307.946-64,335.999c18.667,16,29,2,32-8s56-327.999,56-327.999
	S189.995,143.739,183.995,159.739z"/>
<path style="fill:#FFD750;" d="M293.179,84.53c5.525-4.839,8.458-12.561,6.016-20.923c-1.814-6.215-6.868-11.255-13.061-13.141
	c-0.259-0.078-0.518-0.152-0.776-0.221c-6.84-1.815-11.178,6.84-6.241,11.91C284.808,67.999,289.612,75.634,293.179,84.53z"/>
<g>
	
		<ellipse transform="matrix(-0.5453 -0.8383 0.8383 -0.5453 182.9738 408.1672)" style="fill:#D2B49B;" cx="202.195" cy="154.455" rx="12.001" ry="16.001"/>
	
		<ellipse transform="matrix(-0.5453 0.8383 -0.8383 -0.5453 617.5308 -26.2669)" style="fill:#D2B49B;" cx="315.89" cy="154.361" rx="12.001" ry="16.001"/>
</g>
<path style="fill:#6B676E;" d="M255.995,87c-30.928,0-56,32.235-56,72c0,7.807,0.996,15.307,2.784,22.346
	c15.583,6.09,33.742,9.654,53.216,9.654s37.633-3.564,53.216-9.654c1.788-7.039,2.784-14.539,2.784-22.346
	C311.995,119.235,286.923,87,255.995,87z"/>
<path d="M416.237,152.004c-2.071-0.062-20.535-0.297-30.241,10.703c-8.79,9.961-29.203,25.85-39.195,28.808
	c-5.556-18.331-9.613-30.91-10.894-34.323c-3.022-8.059-7.596-12.982-13.595-14.634c-1.343-0.369-2.673-0.529-3.968-0.54
	c-0.272-1.475-0.576-2.935-0.912-4.377c8.525-0.782,18.364-4.355,24.877-12.729c4.612-5.93,8.56-14.232,12.377-22.262
	c2.439-5.13,6.038-12.699,8.073-15.044l30.959-6.191c4.333-0.867,7.143-5.082,6.276-9.414l0,0c-0.866-4.332-5.081-7.143-9.414-6.275
	l-32.155,6.431c-7.689,1.537-11.866,10.324-18.189,23.624c-3.289,6.917-7.016,14.757-10.557,19.31
	c-4.585,5.896-13.327,6.945-17.484,6.673c-3.784-8.655-8.818-16.332-14.785-22.681c11.006-9.466,17.112-25.894,13.672-38.925
	c-1.369-5.185-6.138-16.242-22.044-19.332c0.656-0.585,1.485-1.145,2.534-1.669C307.721,31.081,344.37,16,359.995,16
	c11.045,0,27.215,19.13,33.312,28.39c2.424,3.693,7.384,4.722,11.078,2.299c3.694-2.424,4.723-7.384,2.299-11.078
	C404.292,31.966,382.66,0,359.995,0c-21.495,0-65.082,19.597-75.578,24.845c-7.799,3.899-11.416,9.663-12.572,15.155h-31.699
	c-1.156-5.492-4.773-11.256-12.573-15.155C217.077,19.597,173.49,0,151.995,0c-22.665,0-44.296,31.966-46.688,35.61
	c-2.423,3.692-1.394,8.646,2.296,11.072c3.688,2.424,8.648,1.399,11.078-2.288C124.78,35.13,140.95,16,151.995,16
	c15.625,0,52.274,15.081,68.422,23.155c1.04,0.521,1.863,1.074,2.517,1.653c-15.972,3.068-20.755,14.154-22.126,19.348
	c-3.445,13.053,2.687,29.515,13.728,38.973c-5.938,6.328-10.949,13.974-14.721,22.59c-3.676,0.476-12.696-0.449-17.504-6.63
	c-3.542-4.553-7.269-12.393-10.557-19.31c-6.323-13.3-10.5-22.087-18.189-23.624l-32.155-6.431
	c-4.333-0.867-8.547,1.943-9.414,6.275l0,0l0,0c-0.866,4.332,1.943,8.547,6.276,9.414l30.959,6.191
	c2.035,2.345,5.634,9.914,8.073,15.044c3.817,8.029,7.765,16.332,12.377,22.262c6.609,8.498,16.472,12.049,24.871,12.757
	c-0.334,1.437-0.636,2.889-0.907,4.355c-1.161,0.041-2.348,0.205-3.545,0.534c-5.999,1.651-10.573,6.575-13.595,14.634
	c-1.283,3.42-5.353,16.04-10.925,34.428c-9.839-2.643-30.678-18.817-39.585-28.912c-9.705-11-28.167-10.766-30.241-10.703
	c-4.407,0.133-7.863,3.807-7.743,8.214c0.12,4.406,3.777,7.881,8.204,7.779c3.333-0.078,13.744,0.719,17.783,5.296
	c5.927,6.718,29.354,28.377,47.015,33.574c-9.25,31.218-21.063,73.122-31.308,114.698
	c-34.854,141.448-26.279,170.769-14.916,180.509c8.273,7.092,15.415,9.176,20.954,9.176c2.264,0,4.261-0.349,5.957-0.846
	c12.135-3.561,16.813-16.289,17.958-20.105c0.806-2.688,4.367-23.17,9.265-52.441c15.214,49.181,15.19,52.074,15.092,62.739
	c-0.009,0.972-0.018,1.999-0.02,3.116c-0.005,4.275,3.233,8.012,7.5,8.271c4.645,0.283,8.5-3.4,8.5-7.984
	c0-1.176,0.01-2.249,0.019-3.257c0.133-14.563,0.153-16.802-24.385-95.135c-0.239-0.762-0.584-1.46-1.009-2.09
	c3.263-19.79,6.799-41.424,10.342-63.194c2.294,33.189,8.613,63.744,18.353,88.029C216.674,461.658,235.383,480,255.995,480
	c20.574,0,39.284-18.479,52.684-52.033c9.905-24.802,16.267-55.928,18.459-89.557c3.619,22.244,7.24,44.398,10.577,64.645
	c-0.585,0.743-1.055,1.598-1.354,2.554c-24.538,78.333-24.518,80.571-24.385,95.135c0.008,0.927,0.018,1.909,0.019,2.976
	c0.005,4.254,3.202,7.977,7.446,8.263c4.669,0.313,8.554-3.38,8.554-7.981c0-1.229-0.01-2.35-0.02-3.403
	c-0.098-10.729-0.12-13.599,15.366-63.624c4.974,29.745,8.598,50.611,9.413,53.326c1.145,3.816,5.824,16.545,17.958,20.105
	c1.696,0.497,3.691,0.846,5.957,0.846c5.539,0,12.682-2.086,20.954-9.176c11.364-9.74,19.938-39.061-14.916-180.509
	c-10.257-41.628-22.087-83.585-31.342-114.816c17.615-5.395,40.744-26.787,46.628-33.456c4.039-4.578,14.45-5.374,17.759-5.297
	c4.416,0.153,8.105-3.338,8.238-7.754C424.126,155.826,420.654,152.138,416.237,152.004z M196.33,270.18
	c3.779-23.406,7.159-44.41,9.706-60.264c10.163,15.861,25.042,26.786,41.959,29.437v8.869
	C224.115,249.533,206.861,256.883,196.33,270.18z M255.995,224c-17.286,0-32.463-12.25-40.916-30.578
	c12.252,4.272,26.392,6.578,40.916,6.578c5.34,0,10.677-0.308,15.863-0.916c4.388-0.514,7.529-4.488,7.015-8.876
	s-4.485-7.522-8.877-7.015c-4.57,0.535-9.28,0.807-14,0.807c-16.531,0-32.313-3.32-44.438-9.348
	c-0.779-0.388-1.591-0.631-2.408-0.75c-0.747-4.479-1.154-9.127-1.154-13.902c0-35.29,21.533-64,48-64
	c18.285,0,34.209,13.705,42.312,33.813c0.14,0.599,0.342,1.19,0.629,1.765c0.04,0.08,0.095,0.148,0.137,0.228
	c3.147,8.513,4.922,18.081,4.922,28.194c0,4.774-0.407,9.423-1.154,13.902c-0.817,0.118-1.63,0.362-2.41,0.75
	c-2.12,1.054-4.386,2.04-6.736,2.93c-4.132,1.565-6.212,6.184-4.647,10.315c1.212,3.199,4.253,5.168,7.483,5.168
	c0.186,0,0.372-0.012,0.558-0.024C288.672,211.581,273.401,224,255.995,224z M216.278,64.24c1.443-5.468,6.698-8.24,15.618-8.24
	h48.099c8.92,0,14.175,2.772,15.618,8.24c2.048,7.756-3.275,19.509-10.839,24.338C276.116,83.104,266.343,80,255.995,80
	c-10.367,0-20.158,3.117-28.828,8.61C219.576,83.801,214.226,72.014,216.278,64.24z M144.333,485.701
	c-1.188,3.96-3.855,8.387-7.137,9.35c-2.889,0.849-7.149-0.972-11.994-5.125c-1.339-1.147-7.723-9.191-1.921-55.006
	c3.528-27.859,10.916-64.709,21.959-109.526c19.724-80.044,43.776-155.996,46.247-162.585c0.184-0.489,0.364-0.926,0.54-1.324
	c0.102,6.948,0.915,13.679,2.354,20.09C175.47,299.594,146.704,476.936,144.333,485.701z M255.995,464
	c-8.919,0-17.992-6.688-26.187-18.914c5.805,1.332,11.876,2.232,18.077,2.643c0.18,0.012,0.358,0.018,0.536,0.018
	c4.178,0,7.695-3.243,7.975-7.472c0.292-4.409-3.046-8.22-7.455-8.511c-10.812-0.715-21.08-3.097-29.753-6.877
	c-0.344-0.818-0.685-1.648-1.022-2.49c-2.894-7.216-5.466-15.043-7.7-23.369c13.003,5.783,28.814,8.973,45.5,8.973
	c2.886,0,5.794-0.097,8.643-0.288c4.409-0.297,7.742-4.11,7.446-8.519c-0.295-4.408-4.111-7.725-8.518-7.446
	c-2.494,0.168-5.041,0.253-7.571,0.253c-19.791,0-38.52-5.262-50.24-14.083c-1.309-7.085-2.4-14.421-3.268-21.958
	c14.482,7.72,33.397,12.041,53.537,12.041c5.34,0,10.677-0.308,15.863-0.916c4.388-0.514,7.529-4.488,7.015-8.876
	c-0.514-4.389-4.485-7.527-8.877-7.015c-4.57,0.535-9.28,0.807-14,0.807c-20.871,0-40.625-5.394-52.842-14.428
	c-0.751-0.556-1.57-0.951-2.416-1.21c-0.489-7.978-0.742-16.115-0.742-24.362c0-1.831,0.062-3.597,0.167-5.316
	C214.911,315.201,234.772,320,255.995,320c5.341,0,10.679-0.308,15.865-0.916c4.389-0.514,7.529-4.488,7.015-8.876
	c-0.514-4.389-4.488-7.526-8.876-7.015c-4.571,0.535-9.282,0.807-14.003,0.807c-20.649,0-40.193-5.286-52.439-14.147
	C210.395,272.138,227.299,264,255.995,264c28.759,0,45.676,8.172,52.485,25.967c-0.345,0.17-0.684,0.356-1.01,0.58
	c-3.913,2.687-8.546,5.053-13.771,7.034c-4.131,1.566-6.21,6.186-4.644,10.316c1.213,3.198,4.253,5.166,7.482,5.166
	c0.942,0,1.901-0.168,2.835-0.521c4.489-1.702,8.654-3.669,12.456-5.86c0.106,1.721,0.167,3.486,0.167,5.318
	c0,8.66-0.279,17.063-0.801,25.182c-1.294,0.13-2.576,0.576-3.724,1.364c-3.916,2.688-8.551,5.056-13.777,7.037
	c-4.131,1.565-6.211,6.185-4.645,10.315c1.212,3.198,4.253,5.167,7.482,5.167c0.942,0,1.9-0.168,2.834-0.521
	c3.593-1.361,6.976-2.896,10.136-4.575c-0.901,7.699-2.03,15.079-3.354,22.115c-0.304,0.162-0.604,0.338-0.893,0.544
	c-5.093,3.631-11.627,6.741-18.896,8.993c-4.22,1.308-6.582,5.789-5.274,10.009c1.063,3.433,4.225,5.635,7.639,5.635
	c0.784,0,1.582-0.116,2.37-0.36c3.611-1.119,7.033-2.404,10.271-3.837c-2.601,9.58-5.587,18.264-8.85,25.944
	c-6.249,2.691-13.226,4.648-20.769,5.804c-4.367,0.669-7.366,4.752-6.697,9.119c0.606,3.957,4.014,6.79,7.898,6.79
	c0.402,0,0.81-0.03,1.221-0.093c2.609-0.399,5.162-0.892,7.665-1.456C273.656,457.312,264.664,464,255.995,464z M263.995,248.222
	v-8.869c17.106-2.681,32.126-13.823,42.295-29.97c2.581,16.063,6.034,37.523,9.9,61.465
	C305.711,257.126,288.275,249.556,263.995,248.222z M389.132,434.92c5.801,45.814-0.583,53.858-1.921,55.006
	c-4.845,4.153-9.108,5.975-11.994,5.125c-3.282-0.963-5.949-5.39-7.121-9.292c-2.396-8.85-31.332-187.259-50.237-305.272
	c1.347-6.348,2.081-13.002,2.124-19.859c0.299,0.593,0.617,1.31,0.944,2.182c2.471,6.589,26.523,82.541,46.247,162.585
	C378.216,370.211,385.604,407.061,389.132,434.92z"/>
</svg>